<svg width="535" height="92" viewBox="0 0 535 92" fill="black" xmlns="http://www.w3.org/2000/svg">
<path d="M61.824 12.432H84.864C84.864 22.5013 83.8827 32.0587 81.92 41.104C80.0427 50.1493 77.7387 57.5307 75.008 63.248C72.2773 68.9653 69.504 73.9573 66.688 78.224C63.9573 82.4053 61.6107 85.392 59.648 87.184L56.832 90H23.936L0 12.432H40.576L47.872 62.864C53.8453 55.44 57.984 44.9013 60.288 31.248C61.312 25.2747 61.824 19.0027 61.824 12.432ZM123.054 31.12L125.23 30.352L120.878 90H96.686L92.59 30.352C97.454 32.3147 102.617 33.296 108.078 33.296C113.625 33.296 118.617 32.5707 123.054 31.12ZM108.846 27.664C104.579 27.664 100.995 26.384 98.094 23.824C95.1927 21.264 93.742 17.936 93.742 13.84C93.742 9.65866 95.15 6.33066 97.966 3.856C100.867 1.296 104.451 0.0159988 108.718 0.0159988C113.07 0.0159988 116.697 1.296 119.598 3.856C122.499 6.416 123.95 9.744 123.95 13.84C123.95 17.936 122.499 21.264 119.598 23.824C116.697 26.384 113.113 27.664 108.846 27.664ZM162.789 32.912C163.557 32.0587 165.264 30.9493 167.909 29.584C170.64 28.2187 173.498 27.536 176.485 27.536C179.557 27.536 182.458 28.0053 185.189 28.944C188.005 29.8827 190.736 31.4187 193.381 33.552C196.112 35.6 198.288 38.7573 199.909 43.024C201.616 47.2907 202.469 52.368 202.469 58.256C202.469 69.008 200.037 77.2 195.173 82.832C190.309 88.464 184.08 91.28 176.485 91.28C168.89 91.28 162.746 88.208 158.053 82.064C157.968 81.8933 157.882 81.7653 157.797 81.68L155.621 90H136.421L132.965 6.92799H162.149L161.125 34.96C161.466 34.448 162.021 33.7653 162.789 32.912ZM168.421 44.688C162.789 44.688 159.973 49.808 159.973 60.048C159.973 63.5467 160.613 66.704 161.893 69.52C163.258 72.2507 165.178 73.616 167.653 73.616C170.128 73.616 172.005 72.6773 173.285 70.8C174.565 68.9227 175.333 67.1307 175.589 65.424C175.845 63.7173 175.973 61.9253 175.973 60.048C175.973 49.808 173.456 44.688 168.421 44.688ZM242.873 91.28C233.23 91.28 225.124 88.5067 218.553 82.96C212.068 77.328 208.825 69.0933 208.825 58.256C208.825 51.4293 210.489 45.6267 213.817 40.848C219.876 31.9733 229.262 27.536 241.977 27.536C251.705 27.536 259.129 29.4987 264.249 33.424C269.369 37.264 271.929 42.5973 271.929 49.424C271.929 54.7147 269.796 59.024 265.529 62.352C261.348 65.5947 255.204 67.216 247.097 67.216C243.769 67.216 240.782 66.96 238.137 66.448L236.729 66.192C237.156 69.264 238.478 71.568 240.697 73.104C243.001 74.5547 245.732 75.28 248.889 75.28C254.094 75.28 258.532 73.7013 262.201 70.544L270.137 80.144C268.772 81.7653 267.15 83.3013 265.273 84.752C263.396 86.1173 260.409 87.568 256.313 89.104C252.217 90.5547 247.737 91.28 242.873 91.28ZM253.241 48.272C253.241 46.5653 252.558 45.1573 251.193 44.048C249.913 42.9387 248.121 42.384 245.817 42.384C243.513 42.384 241.337 43.408 239.289 45.456C237.326 47.504 236.345 49.936 236.345 52.752C238.222 53.6053 240.654 54.032 243.641 54.032C246.713 54.032 249.06 53.52 250.681 52.496C252.388 51.3867 253.241 49.9787 253.241 48.272Z" fill="#4338CA"/>
<path d="M318.389 10.64C323.338 10.64 328.672 11.536 334.389 13.328C340.192 15.12 344.928 17.3813 348.597 20.112L343.221 31.504C339.466 30.0533 335.328 29.328 330.805 29.328C318.176 29.328 311.861 36.6667 311.861 51.344C311.861 58.4267 313.568 63.9733 316.981 67.984C320.48 71.9093 324.661 73.872 329.525 73.872C334.474 73.872 339.082 72.848 343.349 70.8L349.109 81.808C340.49 88.1227 330.208 91.28 318.261 91.28C306.314 91.28 296.544 87.7813 288.949 80.784C281.44 73.7867 277.685 63.76 277.685 50.704C277.685 37.5627 281.397 27.6213 288.821 20.88C296.245 14.0533 306.101 10.64 318.389 10.64ZM376.103 91.28C369.532 91.28 364.114 89.36 359.847 85.52C355.666 81.68 353.575 76.2613 353.575 69.264C353.575 62.1813 355.964 57.0613 360.743 53.904C365.522 50.6613 371.282 49.04 378.023 49.04C384.764 49.04 390.61 50.1067 395.559 52.24C394.45 45.1573 389.97 41.616 382.119 41.616C378.535 41.616 374.098 42.3413 368.807 43.792L365.607 32.272C373.287 29.1147 381.095 27.536 389.031 27.536C411.9 27.536 423.335 37.264 423.335 56.72C423.335 63.376 422.567 72.592 421.031 84.368L420.391 90H399.271L398.503 82.96C392.7 88.5067 385.234 91.28 376.103 91.28ZM387.623 75.408C391.463 75.408 394.748 74.3413 397.479 72.208L396.711 63.76C394.578 62.3093 392.188 61.584 389.543 61.584C386.983 61.584 384.85 62.224 383.143 63.504C381.522 64.784 380.711 66.3627 380.711 68.24C380.711 70.1173 381.351 71.7813 382.631 73.232C383.911 74.6827 385.575 75.408 387.623 75.408ZM459.381 37.648C463.904 30.9067 469.493 27.536 476.149 27.536C479.306 27.536 482.208 28.304 484.853 29.84L481.781 50.832C478.368 48.4427 474.528 47.248 470.261 47.248C466.165 47.248 463.392 48.9547 461.941 52.368C461.088 54.5013 460.533 56.5493 460.277 58.512L457.845 90H434.805L430.965 29.328H456.181L459.381 37.648ZM522.635 67.216C522.55 72.1653 524.299 74.64 527.883 74.64C528.907 74.64 530.144 74.1707 531.595 73.232L534.283 85.648C533.771 86.0747 533.046 86.6293 532.107 87.312C531.254 87.9093 529.334 88.72 526.347 89.744C523.446 90.768 520.416 91.28 517.259 91.28C511.456 91.28 506.72 89.3173 503.051 85.392C499.382 81.3813 497.419 76.304 497.163 70.16L496.011 45.968H486.155L487.691 29.328H495.371L494.859 16.784L525.195 10.64L524.299 29.328H531.723L533.259 45.968H523.531L522.635 67.216Z" fill="black"/>
</svg>
